<?xml version="1.0" encoding="utf-8"?>
<!-- Generator: Adobe Illustrator 19.0.0, SVG Export Plug-In . SVG Version: 6.00 Build 0)  -->
<svg version="1.1" id="Layer_1" xmlns="http://www.w3.org/2000/svg" xmlns:xlink="http://www.w3.org/1999/xlink" x="0px" y="0px"
	 viewBox="0 0 512 512" style="enable-background:new 0 0 512 512;" xml:space="preserve">
<g id="XMLID_1_">
	<path id="XMLID_5_" d="M465.5,0H46.5C21.4,0,1.9,20.5,1.9,44.7v299.8c0,25.1,20.5,44.7,44.7,44.7h14.9V512L202,389.1h263.4
		c25.1,0,44.7-20.5,44.7-44.7V44.7C510.1,20.5,490.6,0,465.5,0z M480.3,344.4c0,8.4-6.5,14.9-14.9,14.9H190.8l-99.6,86.6v-86.6H46.5
		c-8.4,0-14.9-6.5-14.9-14.9V44.7c0-8.4,6.5-14.9,14.9-14.9h418.9c8.4,0,14.9,6.5,14.9,14.9V344.4z"/>
</g>
</svg>
